<svg width="97" height="92" viewBox="0 0 97 92" fill="none" xmlns="http://www.w3.org/2000/svg">
<path d="M57.769 47.9196C52.6322 42.4022 47.749 36.6946 43.6268 30.3528C40.7096 25.7867 38.1095 20.6498 35.002 17.4789C32.2116 14.5617 30.4359 11.4542 29.548 8.28333C23.3331 10.059 19.0206 11.5811 13.4399 17.4155C-25.4354 57.4957 30.8798 119.392 74.1309 78.6773C77.3018 75.6967 76.1603 72.0819 78.0628 68.8475C72.0381 61.8716 64.1108 54.7053 57.769 47.9196Z" fill="#DE814B"/>
<path d="M74.1338 78.6769C34.0537 111.21 -21.7542 59.5247 13.4428 17.3517C14.0136 16.7175 14.6477 16.0199 15.2819 15.3857C23.336 7.39505 32.278 3.65339 41.0296 3.08262C41.9175 3.01921 42.6151 3.71681 42.6785 4.54124C42.8053 9.74152 46.1665 13.2295 51.1131 13.9271C51.8741 14.0539 52.3181 14.7515 52.1278 15.5126C51.6205 17.1614 51.4302 18.9371 51.4302 20.7763C51.6204 30.0987 59.3574 37.7723 68.6799 37.8357C70.5824 37.8357 72.4216 37.582 74.1973 37.0113C74.8949 36.7576 75.6559 37.2015 75.7827 37.9625C76.9242 44.1775 82.5684 43.036 85.232 42.1481C85.993 41.8945 86.8175 42.3384 87.0077 43.0994C92.208 62.0614 74.1338 78.6769 74.1338 78.6769Z" fill="#F6B059"/>
<path d="M46.9247 38.5971C46.9247 43.2901 43.1197 46.461 38.4267 46.461C33.7338 46.461 29.9287 43.2901 29.9287 38.5971C29.9287 33.9042 33.7338 30.0991 38.4267 30.0991C43.1197 30.0991 46.9247 33.8408 46.9247 38.5971Z" fill="#6D420D"/>
<path d="M73.6241 59.0813C73.6241 62.6961 70.7069 65.6134 67.092 65.6134C63.4772 65.6134 61.0039 63.4572 61.0039 59.8423C61.0039 56.2275 63.4772 52.4858 67.092 52.4858C70.7069 52.4858 73.6241 55.4665 73.6241 59.0813Z" fill="#6D420D"/>
<path d="M24.7945 51.0906C24.7945 53.881 22.7651 55.4664 19.9747 55.4664C17.1843 55.4664 14.7744 53.881 14.7744 51.0906C14.7744 48.3002 16.994 46.0806 19.7844 46.0806C22.5748 46.0806 24.7945 48.3002 24.7945 51.0906Z" fill="#6D420D"/>
<path d="M40.1384 68.0852C40.1384 69.3536 39.1237 70.3683 37.8553 70.3683C36.587 70.3683 35.5723 69.3536 35.5723 68.0852C35.5723 66.8169 36.587 65.8022 37.8553 65.8022C39.1237 65.8022 40.1384 66.8169 40.1384 68.0852Z" fill="#6D420D"/>
<path d="M24.6646 24.2648C26.0656 24.2648 27.2014 23.1291 27.2014 21.7281C27.2014 20.3271 26.0656 19.1914 24.6646 19.1914C23.2637 19.1914 22.1279 20.3271 22.1279 21.7281C22.1279 23.1291 23.2637 24.2648 24.6646 24.2648Z" fill="#6D420D"/>
<path d="M70.5129 6.50711C70.7666 9.55118 68.103 12.0245 64.5516 12.0245C61.0002 12.0245 58.2732 9.29751 58.4635 5.93635C58.6537 2.5752 61.3173 0.101896 64.4248 0.418986C67.5323 0.736076 70.2592 3.39963 70.5129 6.50711Z" fill="#F6B059"/>
<path d="M65.9498 10.8193C67.345 10.8193 68.6133 10.4388 69.628 9.74124C68.5499 11.1364 66.7742 12.0243 64.618 12.0243C61.0666 12.0243 58.3396 9.29731 58.5299 5.99958C58.6567 3.9702 59.6714 2.25791 61.13 1.30664C60.4324 2.25791 59.9251 3.46285 59.8617 4.79463C59.7348 8.02895 62.4618 10.7559 65.9498 10.8193Z" fill="#DE814B"/>
<path d="M70.2002 23.7559C70.0733 25.7853 68.3611 27.4975 66.3951 27.6878C64.4291 27.8146 62.8437 26.1658 62.9071 24.0096C62.9071 21.8533 64.6194 20.0776 66.7122 20.0776C68.805 20.0776 70.327 21.7265 70.2002 23.7559Z" fill="#F6B059"/>
<path d="M67.1532 26.7997C67.9143 26.7363 68.6753 26.4192 69.3095 25.9752C68.6119 26.9265 67.5338 27.5607 66.3288 27.6875C64.3629 27.8144 62.8408 26.1655 62.8408 24.0093C62.8408 22.7409 63.475 21.536 64.4263 20.8384C63.9823 21.4726 63.6653 22.297 63.6653 23.1214C63.6018 25.2776 65.1873 26.9265 67.1532 26.7997Z" fill="#DE814B"/>
<path d="M96.1336 25.3428C95.9434 27.7526 93.9774 29.782 91.631 29.9089C89.3479 30.0357 87.5088 28.1331 87.5088 25.5964C87.5722 23.0597 89.5382 21.0303 92.0115 21.0303C94.4848 21.0303 96.3239 22.9963 96.1336 25.3428Z" fill="#F6B059"/>
<path d="M92.5822 28.9579C93.5335 28.8945 94.4214 28.514 95.119 27.9432C94.2945 29.0848 93.0262 29.8458 91.631 29.9092C89.3479 30.036 87.5088 28.1335 87.5088 25.5968C87.5088 24.0747 88.2698 22.743 89.3479 21.8551C88.7771 22.6161 88.4601 23.5674 88.4601 24.5821C88.4601 27.1822 90.2992 29.0848 92.5822 28.9579Z" fill="#DE814B"/>
</svg>
