<svg width="15" height="14" viewBox="0 0 15 14" fill="none" xmlns="http://www.w3.org/2000/svg">
<path fill-rule="evenodd" clip-rule="evenodd" d="M13.7069 4.35V4.35278C14.0548 5.19055 14.2318 6.08079 14.2318 6.99967C14.2318 10.8354 11.1093 13.9578 7.2736 13.9578C3.43787 13.9578 0.31543 10.8354 0.31543 6.99967C0.31543 3.16393 3.43787 0.0415039 7.2736 0.0415039C7.99841 0.0415039 8.71457 0.154429 9.39641 0.375098C9.39923 0.375098 9.39923 0.377878 9.39923 0.377878H9.40794C9.41769 0.381207 9.42558 0.387144 9.43375 0.393253L9.44144 0.398915L9.44473 0.401197L9.44844 0.403565L9.45043 0.404732L9.45448 0.406911C9.46917 0.415663 9.48667 0.418442 9.50101 0.429974C9.50101 0.429974 9.50101 0.430917 9.50156 0.431707C9.50191 0.432273 9.50259 0.432753 9.50376 0.432753C9.51941 0.448694 9.53067 0.464652 9.54343 0.482721L9.54714 0.488023C9.54885 0.490271 9.55064 0.492399 9.55249 0.494493L9.55654 0.498988C9.56018 0.502986 9.56382 0.506984 9.56697 0.511429C9.56945 0.514826 9.57164 0.518498 9.57336 0.522617C9.57802 0.530767 9.58105 0.539656 9.58331 0.548939L9.58448 0.554121L9.58578 0.560453L9.5877 0.571915L9.59038 0.579242L9.59326 0.58681L9.59347 0.587376C9.59827 0.599902 9.60321 0.612857 9.60521 0.627185C9.60521 0.631921 9.60459 0.636743 9.60397 0.641737V0.644036C9.60321 0.650539 9.60239 0.65742 9.60239 0.664953C9.60239 0.69119 9.59965 0.714252 9.59367 0.740506V0.743285C9.59031 0.753049 9.58441 0.761937 9.57871 0.77038C9.57425 0.777072 9.56999 0.783472 9.56739 0.789804C9.55867 0.807307 9.5527 0.824792 9.54117 0.839103C9.16977 1.29159 8.96702 1.85699 8.96702 2.4367C8.96702 3.82515 10.0974 4.95596 11.4863 4.95596C12.1416 4.95596 12.7618 4.70388 13.2345 4.24583C13.2384 4.24258 13.2424 4.23982 13.2463 4.23733C13.2519 4.23376 13.2575 4.23076 13.2632 4.22777C13.2681 4.22517 13.273 4.22256 13.2779 4.21959C13.2954 4.20806 13.3069 4.19653 13.3245 4.18778H13.3304C13.3507 4.17942 13.3741 4.17625 13.3972 4.17347C13.4115 4.17347 13.4262 4.16471 13.4405 4.16749C13.458 4.16749 13.4724 4.17347 13.4898 4.17625C13.5101 4.17903 13.5304 4.18181 13.5479 4.18778C13.5554 4.19143 13.5618 4.19646 13.5685 4.20195L13.5722 4.205L13.5797 4.21084C13.6028 4.22237 13.623 4.2339 13.6433 4.2514C13.6433 4.25307 13.6433 4.25374 13.6439 4.25401C13.6443 4.25418 13.645 4.25418 13.6461 4.25418C13.6576 4.26849 13.6663 4.28598 13.6751 4.30348C13.6838 4.31779 13.6982 4.32654 13.7042 4.34403C13.7042 4.34578 13.7042 4.34657 13.7046 4.34739L13.7055 4.34849L13.7069 4.35ZM2.34483 7.86924C2.34483 8.51019 2.86414 9.02907 3.50466 9.02907C4.14518 9.02907 4.66449 8.51019 4.66449 7.86924C4.66449 7.2283 4.14518 6.70942 3.50466 6.70942C2.86372 6.70942 2.34483 7.2287 2.34483 7.86924ZM5.24379 2.94048C4.76546 2.94048 4.37422 3.33213 4.37422 3.81044C4.37422 4.28878 4.76587 4.68042 5.24379 4.68003C5.72253 4.68003 6.11377 4.28878 6.11377 3.81044C6.11377 3.33172 5.72212 2.94048 5.24379 2.94048ZM6.98374 10.7686C6.98374 11.2473 7.37498 11.6386 7.85331 11.6386C8.33164 11.6386 8.72329 11.2469 8.72329 10.7686C8.72329 10.2903 8.33164 9.89905 7.85331 9.89905C7.37498 9.89905 6.98374 10.2903 6.98374 10.7686ZM7.2736 6.85454C7.2736 7.49549 7.79291 8.01437 8.43343 8.01437C9.07395 8.01437 9.59285 7.49549 9.59326 6.85454C9.59326 6.2136 9.07395 5.69472 8.43343 5.69472C7.7925 5.69472 7.2736 6.214 7.2736 6.85454Z" fill="white"/>
</svg>
